{
  "accessors": [
    {
      "bufferView": 2,
      "componentType": 5126,
      "count": 65532,
      "max": [
        0.009516265243291855,
        0.001107931137084961,
        0.009324710816144943
      ],
      "min": [
        -0.00958673469722271,
        -0.0007950663566589355,
        -0.009235289879143238
      ],
      "type": "VEC3"
    },
    {
      "bufferView": 2,
      "byteOffset": 786384,
      "componentType": 5126,
      "count": 65532,
      "max": [
        0.9995723962783813,
        0.9999997019767761,
        0.9999969005584717
      ],
      "min": [
        -0.9999114871025085,
        -0.9999979138374329,
        -0.9999440908432007
      ],
      "type": "VEC3"
    },
    {
      "bufferView": 1,
      "componentType": 5126,
      "count": 65532,
      "max": [
        0.8043820261955261,
        0.9999399781227112
      ],
      "min": [
        0.006144999992102385,
        5.1021575927734375e-05
      ],
      "type": "VEC2"
    },
    {
      "bufferView": 1,
      "byteOffset": 524256,
      "componentType": 5126,
      "count": 65532,
      "max": [
        0.8043820261955261,
        0.9999399781227112
      ],
      "min": [
        0.006144999992102385,
        5.1021575927734375e-05
      ],
      "type": "VEC2"
    },
    {
      "bufferView": 1,
      "byteOffset": 1048512,
      "componentType": 5126,
      "count": 65532,
      "max": [
        0.8043820261955261,
        0.9999399781227112
      ],
      "min": [
        0.006144999992102385,
        5.1021575927734375e-05
      ],
      "type": "VEC2"
    },
    {
      "bufferView": 0,
      "componentType": 5125,
      "count": 359481,
      "type": "SCALAR"
    },
    {
      "bufferView": 2,
      "byteOffset": 1572768,
      "componentType": 5126,
      "count": 40319,
      "max": [
        0.009705265052616596,
        0.0011409372091293335,
        0.009332709945738316
      ],
      "min": [
        -0.009582734666764736,
        -0.0009120702743530273,
        -0.009218289516866207
      ],
      "type": "VEC3"
    },
    {
      "bufferView": 2,
      "byteOffset": 2056596,
      "componentType": 5126,
      "count": 40319,
      "max": [
        0.999855637550354,
        0.9999997019767761,
        0.9999969005584717
      ],
      "min": [
        -0.9998212456703186,
        -1.0,
        -0.9999982118606567
      ],
      "type": "VEC3"
    },
    {
      "bufferView": 1,
      "byteOffset": 1572768,
      "componentType": 5126,
      "count": 40319,
      "max": [
        0.8045039772987366,
        0.9950850009918213
      ],
      "min": [
        0.00011000000085914508,
        8.89897346496582e-05
      ],
      "type": "VEC2"
    },
    {
      "bufferView": 1,
      "byteOffset": 1895320,
      "componentType": 5126,
      "count": 40319,
      "max": [
        0.8045039772987366,
        0.9950850009918213
      ],
      "min": [
        0.00011000000085914508,
        8.89897346496582e-05
      ],
      "type": "VEC2"
    },
    {
      "bufferView": 1,
      "byteOffset": 2217872,
      "componentType": 5126,
      "count": 40319,
      "max": [
        0.8045039772987366,
        0.9950850009918213
      ],
      "min": [
        0.00011000000085914508,
        8.89897346496582e-05
      ],
      "type": "VEC2"
    },
    {
      "bufferView": 0,
      "byteOffset": 1437924,
      "componentType": 5125,
      "count": 180519,
      "type": "SCALAR"
    },
    {
      "bufferView": 3,
      "componentType": 5126,
      "count": 102,
      "max": [
        7.5
      ],
      "min": [
        0.0416666679084301
      ],
      "type": "SCALAR"
    },
    {
      "bufferView": 4,
      "componentType": 5126,
      "count": 102,
      "max": [
        0.7074539065361023,
        0.7246267199516296,
        0.4434056878089905,
        0.706455647945404
      ],
      "min": [
        -0.5125932693481445,
        -0.726015031337738,
        -0.6874831318855286,
        0.012025193311274052
      ],
      "type": "VEC4"
    }
  ],
  "animations": [
    {
      "channels": [
        {
          "sampler": 0,
          "target": {
            "node": 3,
            "path": "rotation"
          }
        }
      ],
      "name": "C05Action",
      "samplers": [
        {
          "input": 12,
          "interpolation": "LINEAR",
          "output": 13
        }
      ]
    }
  ],
  "asset": {
    "extras": {
      "author": "to_ha_la (https://sketchfab.com/to_ha_la)",
      "license": "CC-BY-4.0 (http://creativecommons.org/licenses/by/4.0/)",
      "source": "https://sketchfab.com/3d-models/184-296800-909-990b65ed44e04ff99faab06ce1da8570",
      "title": "مسكوكات دولة الأغالبة 184-296هــ/800-909م"
    },
    "generator": "Sketchfab-12.65.0",
    "version": "2.0"
  },
  "bufferViews": [
    {
      "buffer": 0,
      "byteLength": 2160000,
      "name": "floatBufferViews",
      "target": 34963
    },
    {
      "buffer": 0,
      "byteLength": 2540424,
      "byteOffset": 2160000,
      "byteStride": 8,
      "name": "floatBufferViews",
      "target": 34962
    },
    {
      "buffer": 0,
      "byteLength": 2540424,
      "byteOffset": 4700424,
      "byteStride": 12,
      "name": "floatBufferViews",
      "target": 34962
    },
    {
      "buffer": 0,
      "byteLength": 408,
      "byteOffset": 7240848,
      "name": "floatBufferViews"
    },
    {
      "buffer": 0,
      "byteLength": 1632,
      "byteOffset": 7241256,
      "byteStride": 16,
      "name": "floatBufferViews"
    }
  ],
  "buffers": [
    {
      "byteLength": 7242888,
      "uri": "scene.bin"
    }
  ],
  "images": [
    {
      "uri": "textures/C05.1001_baseColor.png"
    },
    {
      "uri": "textures/C05.1001_metallicRoughness.png"
    }
  ],
  "materials": [
    {
      "doubleSided": true,
      "name": "C05.1001",
      "occlusionTexture": {
        "index": 1
      },
      "pbrMetallicRoughness": {
        "baseColorTexture": {
          "index": 0
        },
        "metallicRoughnessTexture": {
          "index": 1,
          "texCoord": 1
        },
        "roughnessFactor": 0.3
      }
    }
  ],
  "meshes": [
    {
      "name": "Object_0",
      "primitives": [
        {
          "attributes": {
            "NORMAL": 1,
            "POSITION": 0,
            "TEXCOORD_0": 2,
            "TEXCOORD_1": 3,
            "TEXCOORD_2": 4
          },
          "indices": 5,
          "material": 0,
          "mode": 4
        }
      ]
    },
    {
      "name": "Object_1",
      "primitives": [
        {
          "attributes": {
            "NORMAL": 7,
            "POSITION": 6,
            "TEXCOORD_0": 8,
            "TEXCOORD_1": 9,
            "TEXCOORD_2": 10
          },
          "indices": 11,
          "material": 0,
          "mode": 4
        }
      ]
    }
  ],
  "nodes": [
    {
      "children": [
        1
      ],
      "matrix": [
        1.0,
        0.0,
        0.0,
        0.0,
        0.0,
        2.220446049250313e-16,
        -1.0,
        0.0,
        0.0,
        1.0,
        2.220446049250313e-16,
        0.0,
        0.0,
        0.0,
        0.0,
        1.0
      ],
      "name": "Sketchfab_model"
    },
    {
      "children": [
        2
      ],
      "name": "root"
    },
    {
      "children": [
        3
      ],
      "matrix": [
        1.0,
        0.0,
        0.0,
        0.0,
        0.0,
        2.220446049250313e-16,
        1.0,
        0.0,
        0.0,
        -1.0,
        2.220446049250313e-16,
        0.0,
        0.0,
        0.0,
        0.0,
        1.0
      ],
      "name": "GLTF_SceneRootNode"
    },
    {
      "children": [
        4,
        5
      ],
      "name": "C05_0",
      "rotation": [
        0.7063808441162109,
        0.03203351050615311,
        0.0588589571416378,
        0.7046527862548828
      ],
      "scale": [
        224.91754150390625,
        224.91754150390625,
        224.91754150390625
      ]
    },
    {
      "mesh": 0,
      "name": "Object_4"
    },
    {
      "mesh": 1,
      "name": "Object_5"
    }
  ],
  "samplers": [
    {
      "magFilter": 9729,
      "minFilter": 9987,
      "wrapS": 10497,
      "wrapT": 10497
    }
  ],
  "scene": 0,
  "scenes": [
    {
      "name": "Sketchfab_Scene",
      "nodes": [
        0
      ]
    }
  ],
  "textures": [
    {
      "sampler": 0,
      "source": 0
    },
    {
      "sampler": 0,
      "source": 1
    }
  ]
}
